<svg xmlns="http://www.w3.org/2000/svg" viewBox="0 0 900 140" width="900" height="140" role="img" aria-label="incident-triage — GreenerPlatform">
  <rect width="900" height="140" rx="14" fill="#F4F1EC"/>
  <rect x="0" y="0" width="6" height="140" rx="3" fill="#1E6E52"/>
  <path d="M48.325 34.68Q47.965 34.02 47.335 33.675Q46.705 33.33 45.865 33.33Q44.935 33.33 44.215 33.75Q43.495 34.17 43.09 34.95Q42.685 35.730000000000004 42.685 36.75Q42.685 37.8 43.0975 38.58Q43.51 39.36 44.245 39.78Q44.98 40.2 45.955 40.2Q47.155 40.2 47.92 39.5625Q48.685 38.925 48.925 37.785H45.325V36.18H50.995V38.01Q50.785 39.105 50.095 40.035Q49.405 40.965 48.317499999999995 41.5275Q47.23 42.09 45.88 42.09Q44.365 42.09 43.1425 41.4075Q41.92 40.725 41.2225 39.510000000000005Q40.525 38.295 40.525 36.75Q40.525 35.205 41.2225 33.9825Q41.92 32.76 43.1425 32.0775Q44.365 31.395 45.865 31.395Q47.635 31.395 48.94 32.2575Q50.245 33.120000000000005 50.74 34.68Z M57.605000000000004 33.57V35.775H57.050000000000004Q56.06 35.775 55.557500000000005 36.239999999999995Q55.055 36.705 55.055 37.86V42.0H52.955V33.69H55.055V34.980000000000004Q55.46 34.32 56.1125 33.945Q56.765 33.57 57.605000000000004 33.57Z M67.08 38.475H61.004999999999995Q61.08 39.375 61.635 39.885000000000005Q62.19 40.395 62.99999999999999 40.395Q64.17 40.395 64.66499999999999 39.39H66.92999999999999Q66.57 40.59 65.55 41.3625Q64.53 42.135 63.044999999999995 42.135Q61.845 42.135 60.8925 41.6025Q59.94 41.07 59.4075 40.095Q58.87499999999999 39.12 58.87499999999999 37.845Q58.87499999999999 36.555 59.39999999999999 35.58Q59.925 34.605000000000004 60.87 34.08Q61.815 33.555 63.044999999999995 33.555Q64.22999999999999 33.555 65.16749999999999 34.065Q66.10499999999999 34.575 66.6225 35.5125Q67.14 36.45 67.14 37.665Q67.14 38.115 67.08 38.475ZM64.96499999999999 37.065Q64.94999999999999 36.255 64.38 35.7675Q63.809999999999995 35.28 62.98499999999999 35.28Q62.205 35.28 61.6725 35.7525Q61.13999999999999 36.225 61.019999999999996 37.065Z M76.735 38.475H70.66Q70.735 39.375 71.28999999999999 39.885000000000005Q71.845 40.395 72.655 40.395Q73.825 40.395 74.32 39.39H76.585Q76.225 40.59 75.205 41.3625Q74.185 42.135 72.7 42.135Q71.5 42.135 70.5475 41.6025Q69.595 41.07 69.0625 40.095Q68.53 39.12 68.53 37.845Q68.53 36.555 69.055 35.58Q69.58 34.605000000000004 70.525 34.08Q71.47 33.555 72.7 33.555Q73.88499999999999 33.555 74.82249999999999 34.065Q75.75999999999999 34.575 76.2775 35.5125Q76.795 36.45 76.795 37.665Q76.795 38.115 76.735 38.475ZM74.61999999999999 37.065Q74.60499999999999 36.255 74.035 35.7675Q73.465 35.28 72.64 35.28Q71.86 35.28 71.3275 35.7525Q70.795 36.225 70.675 37.065Z M86.645 37.125V42.0H84.545V37.41Q84.545 36.42 84.05 35.8875Q83.55499999999999 35.355000000000004 82.7 35.355000000000004Q81.83 35.355000000000004 81.3275 35.8875Q80.825 36.42 80.825 37.41V42.0H78.725V33.69H80.825V34.725Q81.245 34.185 81.89750000000001 33.8775Q82.55 33.57 83.33 33.57Q84.815 33.57 85.72999999999999 34.5075Q86.645 35.445 86.645 37.125Z M96.705 38.475H90.63Q90.705 39.375 91.25999999999999 39.885000000000005Q91.815 40.395 92.625 40.395Q93.795 40.395 94.28999999999999 39.39H96.55499999999999Q96.195 40.59 95.175 41.3625Q94.155 42.135 92.67 42.135Q91.47 42.135 90.5175 41.6025Q89.565 41.07 89.0325 40.095Q88.5 39.12 88.5 37.845Q88.5 36.555 89.025 35.58Q89.55 34.605000000000004 90.495 34.08Q91.44 33.555 92.67 33.555Q93.85499999999999 33.555 94.79249999999999 34.065Q95.72999999999999 34.575 96.2475 35.5125Q96.765 36.45 96.765 37.665Q96.765 38.115 96.705 38.475ZM94.58999999999999 37.065Q94.57499999999999 36.255 94.005 35.7675Q93.435 35.28 92.61 35.28Q91.83 35.28 91.2975 35.7525Q90.765 36.225 90.645 37.065Z M103.345 33.57V35.775H102.78999999999999Q101.8 35.775 101.2975 36.239999999999995Q100.795 36.705 100.795 37.86V42.0H98.695V33.69H100.795V34.980000000000004Q101.2 34.32 101.85249999999999 33.945Q102.505 33.57 103.345 33.57Z M109.00999999999999 37.980000000000004H107.255V42.0H105.15499999999999V31.53H109.00999999999999Q110.225 31.53 111.07999999999998 31.950000000000003Q111.93499999999999 32.370000000000005 112.36249999999998 33.105000000000004Q112.78999999999999 33.84 112.78999999999999 34.77Q112.78999999999999 35.61 112.39249999999998 36.345Q111.99499999999999 37.08 111.14749999999998 37.53Q110.29999999999998 37.980000000000004 109.00999999999999 37.980000000000004ZM110.63 34.77Q110.63 33.24 108.91999999999999 33.24H107.255V36.285H108.91999999999999Q109.78999999999999 36.285 110.21 35.8875Q110.63 35.49 110.63 34.77Z M116.77499999999999 30.9V42.0H114.67499999999998V30.9Z M122.49999999999999 33.555Q123.42999999999998 33.555 124.12749999999997 33.93Q124.82499999999997 34.305 125.24499999999998 34.875V33.69H127.35999999999999V42.0H125.24499999999998V40.785Q124.83999999999997 41.37 124.12749999999997 41.7525Q123.41499999999998 42.135 122.48499999999999 42.135Q121.43499999999997 42.135 120.57249999999998 41.595Q119.70999999999998 41.055 119.20749999999998 40.072500000000005Q118.70499999999998 39.09 118.70499999999998 37.815Q118.70499999999998 36.555 119.20749999999998 35.58Q119.70999999999998 34.605000000000004 120.57249999999998 34.08Q121.43499999999997 33.555 122.49999999999999 33.555ZM123.03999999999998 35.4Q122.45499999999998 35.4 121.95999999999998 35.685Q121.46499999999997 35.97 121.15749999999997 36.5175Q120.84999999999998 37.065 120.84999999999998 37.815Q120.84999999999998 38.565 121.15749999999997 39.1275Q121.46499999999997 39.69 121.96749999999997 39.989999999999995Q122.46999999999998 40.29 123.03999999999998 40.29Q123.62499999999999 40.29 124.13499999999999 39.9975Q124.64499999999998 39.705 124.94499999999998 39.1575Q125.24499999999998 38.61 125.24499999999998 37.845Q125.24499999999998 37.08 124.94499999999998 36.5325Q124.64499999999998 35.985 124.13499999999999 35.692499999999995Q123.62499999999999 35.4 123.03999999999998 35.4Z M132.25999999999996 35.415V39.435Q132.25999999999996 39.855 132.46249999999998 40.0425Q132.66499999999996 40.23 133.14499999999998 40.23H134.11999999999998V42.0H132.79999999999998Q130.14499999999998 42.0 130.14499999999998 39.42V35.415H129.15499999999997V33.69H130.14499999999998V31.634999999999998H132.25999999999996V33.69H134.11999999999998V35.415Z M139.84499999999997 35.415H138.38999999999996V42.0H136.25999999999996V35.415H135.31499999999997V33.69H136.25999999999996V33.269999999999996Q136.25999999999996 31.740000000000002 137.12999999999997 31.020000000000003Q137.99999999999997 30.3 139.75499999999997 30.345V32.115Q138.98999999999998 32.1 138.68999999999997 32.370000000000005Q138.38999999999996 32.64 138.38999999999996 33.345V33.69H139.84499999999997Z M141.08499999999998 37.845Q141.08499999999998 36.57 141.64749999999998 35.595Q142.20999999999998 34.62 143.185 34.0875Q144.16 33.555 145.35999999999999 33.555Q146.56 33.555 147.535 34.0875Q148.51 34.62 149.0725 35.595Q149.635 36.57 149.635 37.845Q149.635 39.12 149.0575 40.095Q148.48 41.07 147.4975 41.6025Q146.515 42.135 145.29999999999998 42.135Q144.1 42.135 143.14 41.6025Q142.17999999999998 41.07 141.6325 40.095Q141.08499999999998 39.12 141.08499999999998 37.845ZM147.475 37.845Q147.475 36.66 146.8525 36.022499999999994Q146.23 35.385 145.32999999999998 35.385Q144.42999999999998 35.385 143.8225 36.022499999999994Q143.21499999999997 36.66 143.21499999999997 37.845Q143.21499999999997 39.03 143.80749999999998 39.667500000000004Q144.39999999999998 40.305 145.29999999999998 40.305Q145.86999999999998 40.305 146.3725 40.0275Q146.875 39.75 147.175 39.195Q147.475 38.64 147.475 37.845Z M156.22999999999996 33.57V35.775H155.67499999999995Q154.68499999999995 35.775 154.18249999999995 36.239999999999995Q153.67999999999995 36.705 153.67999999999995 37.86V42.0H151.57999999999996V33.69H153.67999999999995V34.980000000000004Q154.08499999999995 34.32 154.73749999999995 33.945Q155.38999999999996 33.57 156.22999999999996 33.57Z M171.76499999999996 37.125V42.0H169.66499999999996V37.41Q169.66499999999996 36.435 169.16999999999996 35.917500000000004Q168.67499999999995 35.4 167.81999999999996 35.4Q166.96499999999997 35.4 166.46249999999998 35.917500000000004Q165.95999999999998 36.435 165.95999999999998 37.41V42.0H163.85999999999996V37.41Q163.85999999999996 36.435 163.36499999999995 35.917500000000004Q162.86999999999998 35.4 162.01499999999996 35.4Q161.14499999999995 35.4 160.64249999999996 35.917500000000004Q160.13999999999996 36.435 160.13999999999996 37.41V42.0H158.03999999999996V33.69H160.13999999999996V34.695Q160.54499999999996 34.17 161.18249999999995 33.870000000000005Q161.81999999999996 33.57 162.58499999999998 33.57Q163.55999999999997 33.57 164.325 33.9825Q165.08999999999997 34.395 165.50999999999996 35.16Q165.91499999999996 34.44 166.68749999999997 34.004999999999995Q167.45999999999998 33.57 168.35999999999996 33.57Q169.88999999999996 33.57 170.82749999999996 34.5075Q171.76499999999996 35.445 171.76499999999996 37.125Z" fill="#1E6E52"/>
  <path d="M182.23999999999995 36.885Q182.23999999999995 36.495000000000005 182.50999999999993 36.225Q182.77999999999994 35.955 183.16999999999996 35.955Q183.54499999999996 35.955 183.80749999999995 36.225Q184.06999999999996 36.495000000000005 184.06999999999996 36.885Q184.06999999999996 37.275 183.80749999999995 37.545Q183.54499999999996 37.815000000000005 183.16999999999996 37.815000000000005Q182.77999999999994 37.815000000000005 182.50999999999993 37.545Q182.23999999999995 37.275 182.23999999999995 36.885Z M200.65999999999997 39.675H196.09999999999997L195.25999999999996 42.0H193.81999999999996L197.59999999999997 31.605H199.17499999999995L202.93999999999997 42.0H201.49999999999997ZM200.26999999999995 38.565 198.37999999999997 33.285 196.48999999999995 38.565Z M206.15499999999997 31.545V42.0H204.78999999999996V31.545Z M218.38999999999996 42.0 215.89999999999995 37.725H214.24999999999997V42.0H212.88499999999996V31.545H216.25999999999996Q217.44499999999996 31.545 218.26249999999996 31.950000000000003Q219.07999999999996 32.355000000000004 219.48499999999996 33.045Q219.88999999999996 33.735 219.88999999999996 34.62Q219.88999999999996 35.7 219.26749999999996 36.525000000000006Q218.64499999999995 37.35 217.39999999999995 37.62L220.02499999999995 42.0ZM214.24999999999997 36.63H216.25999999999996Q217.36999999999995 36.63 217.92499999999995 36.082499999999996Q218.47999999999996 35.535 218.47999999999996 34.62Q218.47999999999996 33.69 217.93249999999995 33.18Q217.38499999999996 32.67 216.25999999999996 32.67H214.24999999999997Z M229.65999999999997 38.4H223.08999999999995Q223.16499999999996 39.615 223.92249999999996 40.2975Q224.67999999999995 40.98 225.75999999999996 40.98Q226.64499999999995 40.98 227.23749999999995 40.567499999999995Q227.82999999999996 40.155 228.06999999999996 39.465H229.53999999999996Q229.20999999999995 40.65 228.21999999999997 41.3925Q227.22999999999996 42.135 225.75999999999996 42.135Q224.58999999999995 42.135 223.66749999999996 41.61Q222.74499999999995 41.085 222.21999999999997 40.1175Q221.69499999999996 39.15 221.69499999999996 37.875Q221.69499999999996 36.6 222.20499999999996 35.64Q222.71499999999995 34.68 223.63749999999993 34.162499999999994Q224.55999999999995 33.644999999999996 225.75999999999996 33.644999999999996Q226.92999999999995 33.644999999999996 227.82999999999996 34.155Q228.72999999999996 34.665 229.21749999999997 35.557500000000005Q229.70499999999996 36.45 229.70499999999996 37.575Q229.70499999999996 37.965 229.65999999999997 38.4ZM225.69999999999996 34.8Q224.66499999999996 34.8 223.93749999999994 35.459999999999994Q223.20999999999995 36.12 223.10499999999996 37.29H228.29499999999996Q228.29499999999996 36.51 227.94999999999996 35.9475Q227.60499999999996 35.385 227.01249999999996 35.0925Q226.41999999999996 34.8 225.69999999999996 34.8Z M233.06999999999996 30.9V42.0H231.70499999999996V30.9Z M235.36999999999998 31.515Q235.36999999999998 31.125 235.64 30.855Q235.90999999999997 30.585 236.29999999999998 30.585Q236.67499999999998 30.585 236.93749999999997 30.855Q237.19999999999996 31.125 237.19999999999996 31.515Q237.19999999999996 31.905 236.93749999999997 32.175Q236.67499999999998 32.445 236.29999999999998 32.445Q235.90999999999997 32.445 235.64 32.175Q235.36999999999998 31.905 235.36999999999998 31.515ZM236.95999999999998 33.78V42.0H235.59499999999997V33.78Z M242.87499999999997 33.644999999999996Q243.95499999999998 33.644999999999996 244.75 34.11Q245.545 34.575 245.93499999999997 35.28V33.78H247.315V42.0H245.93499999999997V40.47Q245.52999999999997 41.19 244.72749999999996 41.662499999999994Q243.92499999999998 42.135 242.85999999999999 42.135Q241.765 42.135 240.88 41.595Q239.99499999999998 41.055 239.48499999999999 40.08Q238.975 39.105 238.975 37.86Q238.975 36.6 239.48499999999999 35.6475Q239.99499999999998 34.695 240.8875 34.17Q241.77999999999997 33.644999999999996 242.87499999999997 33.644999999999996ZM243.14499999999998 34.83Q242.38 34.83 241.75 35.19Q241.11999999999998 35.55 240.74499999999998 36.239999999999995Q240.36999999999998 36.93 240.36999999999998 37.86Q240.36999999999998 38.805 240.74499999999998 39.5025Q241.11999999999998 40.2 241.75 40.5675Q242.38 40.935 243.14499999999998 40.935Q243.91 40.935 244.54749999999999 40.5675Q245.18499999999997 40.2 245.55999999999997 39.5025Q245.93499999999997 38.805 245.93499999999997 37.875Q245.93499999999997 36.945 245.55999999999997 36.254999999999995Q245.18499999999997 35.565 244.54749999999999 35.1975Q243.91 34.83 243.14499999999998 34.83Z M254.26499999999996 33.644999999999996Q255.37499999999997 33.644999999999996 256.26 34.17Q257.145 34.695 257.655 35.6475Q258.16499999999996 36.6 258.16499999999996 37.86Q258.16499999999996 39.105 257.655 40.08Q257.145 41.055 256.25249999999994 41.595Q255.35999999999996 42.135 254.26499999999996 42.135Q253.19999999999996 42.135 252.39749999999998 41.67Q251.59499999999997 41.205 251.18999999999997 40.485V42.0H249.82499999999996V30.9H251.18999999999997V35.31Q251.60999999999996 34.575 252.41999999999996 34.11Q253.22999999999996 33.644999999999996 254.26499999999996 33.644999999999996ZM253.97999999999996 34.83Q253.22999999999996 34.83 252.59249999999997 35.1975Q251.95499999999996 35.565 251.57249999999996 36.2625Q251.18999999999997 36.96 251.18999999999997 37.875Q251.18999999999997 38.805 251.57249999999996 39.5025Q251.95499999999996 40.2 252.59249999999997 40.5675Q253.22999999999996 40.935 253.97999999999996 40.935Q254.74499999999995 40.935 255.38249999999996 40.5675Q256.02 40.2 256.395 39.5025Q256.77 38.805 256.77 37.86Q256.77 36.93 256.395 36.239999999999995Q256.02 35.55 255.38249999999996 35.19Q254.74499999999995 34.83 253.97999999999996 34.83Z M259.94 31.515Q259.94 31.125 260.21000000000004 30.855Q260.48 30.585 260.87 30.585Q261.245 30.585 261.5075 30.855Q261.77 31.125 261.77 31.515Q261.77 31.905 261.5075 32.175Q261.245 32.445 260.87 32.445Q260.48 32.445 260.21000000000004 32.175Q259.94 31.905 259.94 31.515ZM261.53 33.78V42.0H260.16499999999996V33.78Z M265.41999999999996 30.9V42.0H264.05499999999995V30.9Z M267.71999999999997 31.515Q267.71999999999997 31.125 267.99 30.855Q268.26 30.585 268.65 30.585Q269.025 30.585 269.28749999999997 30.855Q269.54999999999995 31.125 269.54999999999995 31.515Q269.54999999999995 31.905 269.28749999999997 32.175Q269.025 32.445 268.65 32.445Q268.26 32.445 267.99 32.175Q267.71999999999997 31.905 267.71999999999997 31.515ZM269.30999999999995 33.78V42.0H267.94499999999994V33.78Z M273.49999999999994 34.905V39.75Q273.49999999999994 40.35 273.75499999999994 40.5975Q274.00999999999993 40.845 274.63999999999993 40.845H275.6449999999999V42.0H274.41499999999996Q273.275 42.0 272.7049999999999 41.475Q272.13499999999993 40.95 272.13499999999993 39.75V34.905H271.06999999999994V33.78H272.13499999999993V31.71H273.49999999999994V33.78H275.6449999999999V34.905Z M284.575 33.78 279.625 45.87H278.215L279.835 41.91L276.52 33.78H278.03499999999997L280.61499999999995 40.44L283.16499999999996 33.78Z" fill="#4A4E57"/>
  <path d="M41.84 57.68Q41.84 56.08 42.980000000000004 55.019999999999996Q44.12 53.96 45.92 53.96Q47.68 53.96 48.82 55.019999999999996Q49.96 56.08 49.96 57.68Q49.96 59.239999999999995 48.82 60.3Q47.68 61.36 45.92 61.36Q44.12 61.36 42.980000000000004 60.3Q41.84 59.239999999999995 41.84 57.68ZM49.32 63.68V86.0H42.48V63.68Z M76.47999999999999 72.96V86.0H69.67999999999999V73.88Q69.67999999999999 71.64 68.52 70.4Q67.36 69.16 65.39999999999999 69.16Q63.44 69.16 62.28 70.4Q61.12 71.64 61.12 73.88V86.0H54.279999999999994V63.68H61.12V66.64Q62.16 65.16 63.919999999999995 64.3Q65.67999999999999 63.44 67.88 63.44Q71.8 63.44 74.13999999999999 65.97999999999999Q76.47999999999999 68.52 76.47999999999999 72.96Z M91.08000000000001 63.36Q95.28 63.36 98.1 65.56Q100.92 67.75999999999999 101.80000000000001 71.76H94.52000000000001Q93.60000000000001 69.2 90.96000000000001 69.2Q89.08000000000001 69.2 87.96000000000001 70.66Q86.84 72.12 86.84 74.84Q86.84 77.56 87.96000000000001 79.02000000000001Q89.08000000000001 80.48 90.96000000000001 80.48Q93.60000000000001 80.48 94.52000000000001 77.92H101.80000000000001Q100.92 81.84 98.08000000000001 84.08Q95.24000000000001 86.32 91.08000000000001 86.32Q87.80000000000001 86.32 85.26 84.91999999999999Q82.72 83.52 81.30000000000001 80.91999999999999Q79.88000000000001 78.32 79.88000000000001 74.84Q79.88000000000001 71.36 81.30000000000001 68.75999999999999Q82.72 66.16 85.26 64.75999999999999Q87.80000000000001 63.36 91.08000000000001 63.36Z M104.80000000000001 57.68Q104.80000000000001 56.08 105.94000000000001 55.019999999999996Q107.08000000000001 53.96 108.88000000000001 53.96Q110.64000000000001 53.96 111.78000000000002 55.019999999999996Q112.92000000000002 56.08 112.92000000000002 57.68Q112.92000000000002 59.239999999999995 111.78000000000002 60.3Q110.64000000000001 61.36 108.88000000000001 61.36Q107.08000000000001 61.36 105.94000000000001 60.3Q104.80000000000001 59.239999999999995 104.80000000000001 57.68ZM112.28 63.68V86.0H105.44000000000001V63.68Z M125.72 63.36Q127.92 63.36 129.74 64.28Q131.56 65.2 132.6 66.75999999999999V56.4H139.44V86.0H132.6V82.8Q131.64000000000001 84.4 129.86 85.36Q128.08 86.32 125.72 86.32Q122.96000000000001 86.32 120.72 84.9Q118.48 83.48 117.18 80.86Q115.88000000000001 78.24 115.88000000000001 74.8Q115.88000000000001 71.36 117.18 68.75999999999999Q118.48 66.16 120.72 64.75999999999999Q122.96000000000001 63.36 125.72 63.36ZM127.72 69.32Q125.68 69.32 124.26 70.78Q122.84 72.24 122.84 74.8Q122.84 77.36 124.26 78.86Q125.68 80.36 127.72 80.36Q129.76 80.36 131.18 78.88Q132.6 77.4 132.6 74.84Q132.6 72.28 131.18 70.8Q129.76 69.32 127.72 69.32Z M165.32000000000002 76.48H149.84Q150.00000000000003 78.56 151.18 79.66Q152.36 80.76 154.08 80.76Q156.64000000000001 80.76 157.64000000000001 78.6H164.92000000000002Q164.36 80.8 162.90000000000003 82.56Q161.44000000000003 84.32 159.24 85.32Q157.04000000000002 86.32 154.32000000000002 86.32Q151.04000000000002 86.32 148.48000000000002 84.91999999999999Q145.92000000000002 83.52 144.48000000000002 80.91999999999999Q143.04000000000002 78.32 143.04000000000002 74.84Q143.04000000000002 71.36 144.46000000000004 68.75999999999999Q145.88000000000002 66.16 148.44000000000003 64.75999999999999Q151.00000000000003 63.36 154.32000000000002 63.36Q157.56 63.36 160.08 64.72Q162.60000000000002 66.08 164.02000000000004 68.6Q165.44000000000003 71.12 165.44000000000003 74.48Q165.44000000000003 75.44 165.32000000000002 76.48ZM158.44000000000003 72.68Q158.44000000000003 70.92 157.24 69.88Q156.04000000000002 68.84 154.24 68.84Q152.52 68.84 151.34000000000003 69.84Q150.16000000000003 70.84 149.88000000000002 72.68Z M191.24 72.96V86.0H184.44V73.88Q184.44 71.64 183.28 70.4Q182.12 69.16 180.16 69.16Q178.2 69.16 177.04 70.4Q175.88 71.64 175.88 73.88V86.0H169.04V63.68H175.88V66.64Q176.92000000000002 65.16 178.68 64.3Q180.44 63.44 182.64000000000001 63.44Q186.56 63.44 188.9 65.97999999999999Q191.24 68.52 191.24 72.96Z M208.44 80.2V86.0H204.96Q201.24 86.0 199.16000000000003 84.18Q197.08 82.36 197.08 78.24V69.36H194.36V63.68H197.08V58.239999999999995H203.92000000000002V63.68H208.4V69.36H203.92000000000002V78.32Q203.92000000000002 79.32 204.4 79.75999999999999Q204.88 80.2 206.0 80.2Z M229.44000000000003 69.12V74.8H211.84000000000003V69.12Z M247.88 80.2V86.0H244.4Q240.68 86.0 238.60000000000002 84.18Q236.52 82.36 236.52 78.24V69.36H233.8V63.68H236.52V58.239999999999995H243.36V63.68H247.84V69.36H243.36V78.32Q243.36 79.32 243.84 79.75999999999999Q244.32 80.2 245.44 80.2Z M265.52000000000004 63.44V70.68H263.64000000000004Q261.08000000000004 70.68 259.80000000000007 71.78Q258.52000000000004 72.88 258.52000000000004 75.64V86.0H251.68V63.68H258.52000000000004V67.4Q259.72 65.56 261.52 64.5Q263.32 63.44 265.52000000000004 63.44Z M268.16 57.68Q268.16 56.08 269.30000000000007 55.019999999999996Q270.44000000000005 53.96 272.24000000000007 53.96Q274.00000000000006 53.96 275.14000000000004 55.019999999999996Q276.28000000000003 56.08 276.28000000000003 57.68Q276.28000000000003 59.239999999999995 275.14000000000004 60.3Q274.00000000000006 61.36 272.24000000000007 61.36Q270.44000000000005 61.36 269.30000000000007 60.3Q268.16 59.239999999999995 268.16 57.68ZM275.64000000000004 63.68V86.0H268.80000000000007V63.68Z M289.08 63.36Q291.44 63.36 293.22 64.32Q295.0 65.28 295.96 66.84V63.68H302.8V86.0H295.96V82.84Q294.96 84.4 293.17999999999995 85.36Q291.4 86.32 289.04 86.32Q286.32 86.32 284.08000000000004 84.9Q281.84000000000003 83.48 280.54 80.86Q279.24 78.24 279.24 74.8Q279.24 71.36 280.54 68.75999999999999Q281.84000000000003 66.16 284.08000000000004 64.75999999999999Q286.32 63.36 289.08 63.36ZM291.08 69.32Q289.04 69.32 287.62 70.78Q286.2 72.24 286.2 74.8Q286.2 77.36 287.62 78.86Q289.04 80.36 291.08 80.36Q293.12 80.36 294.53999999999996 78.88Q295.96 77.4 295.96 74.84Q295.96 72.28 294.53999999999996 70.8Q293.12 69.32 291.08 69.32Z M323.12 66.84V63.68H329.96000000000004V85.96Q329.96000000000004 89.04 328.74 91.54Q327.52000000000004 94.04 325.02000000000004 95.52000000000001Q322.52000000000004 97.0 318.8 97.0Q313.84000000000003 97.0 310.76 94.66Q307.68 92.32 307.24 88.32H314.00000000000006Q314.32000000000005 89.6 315.52000000000004 90.34Q316.72 91.08 318.48 91.08Q320.6 91.08 321.86 89.86Q323.12 88.64 323.12 85.96V82.8Q322.12 84.36 320.36 85.34Q318.6 86.32 316.24 86.32Q313.48 86.32 311.24 84.9Q309.00000000000006 83.48 307.70000000000005 80.86Q306.40000000000003 78.24 306.40000000000003 74.8Q306.40000000000003 71.36 307.70000000000005 68.75999999999999Q309.00000000000006 66.16 311.24 64.75999999999999Q313.48 63.36 316.24 63.36Q318.6 63.36 320.38 64.32Q322.16 65.28 323.12 66.84ZM318.24 69.32Q316.20000000000005 69.32 314.78000000000003 70.78Q313.36 72.24 313.36 74.8Q313.36 77.36 314.78000000000003 78.86Q316.20000000000005 80.36 318.24 80.36Q320.28000000000003 80.36 321.70000000000005 78.88Q323.12 77.4 323.12 74.84Q323.12 72.28 321.70000000000005 70.8Q320.28000000000003 69.32 318.24 69.32Z M355.84000000000003 76.48H340.36000000000007Q340.52000000000004 78.56 341.70000000000005 79.66Q342.88000000000005 80.76 344.6000000000001 80.76Q347.1600000000001 80.76 348.1600000000001 78.6H355.44000000000005Q354.88000000000005 80.8 353.4200000000001 82.56Q351.96000000000004 84.32 349.76000000000005 85.32Q347.56000000000006 86.32 344.84000000000003 86.32Q341.56000000000006 86.32 339.00000000000006 84.91999999999999Q336.44000000000005 83.52 335.00000000000006 80.91999999999999Q333.56000000000006 78.32 333.56000000000006 74.84Q333.56000000000006 71.36 334.98 68.75999999999999Q336.40000000000003 66.16 338.96000000000004 64.75999999999999Q341.52000000000004 63.36 344.84000000000003 63.36Q348.08000000000004 63.36 350.6 64.72Q353.12000000000006 66.08 354.5400000000001 68.6Q355.96000000000004 71.12 355.96000000000004 74.48Q355.96000000000004 75.44 355.84000000000003 76.48ZM348.96000000000004 72.68Q348.96000000000004 70.92 347.76000000000005 69.88Q346.56000000000006 68.84 344.76000000000005 68.84Q343.0400000000001 68.84 341.86000000000007 69.84Q340.68000000000006 70.84 340.40000000000003 72.68Z" fill="#16181D"/>
  <path d="M45.78 114.15Q44.505 114.15 43.755 113.4375Q43.005 112.725 43.005 111.57Q43.005 110.805 43.35 110.23500000000001Q43.695 109.665 44.31 109.3425Q44.925 109.02 45.72 109.02H48.269999999999996V108.375Q48.269999999999996 106.77 46.515 106.77Q45.735 106.77 45.254999999999995 107.055Q44.775 107.34 44.745 107.85H43.395Q43.47 106.875 44.302499999999995 106.2375Q45.135 105.6 46.515 105.6Q48.015 105.6 48.817499999999995 106.32Q49.62 107.04 49.62 108.33V114.0H48.285V112.5H48.255Q48.135 113.265 47.489999999999995 113.70750000000001Q46.845 114.15 45.78 114.15ZM46.11 113.01Q47.1 113.01 47.685 112.53Q48.269999999999996 112.05 48.269999999999996 111.225V110.07H45.87Q45.21 110.07 44.7975 110.4675Q44.385 110.865 44.385 111.525Q44.385 112.215 44.8425 112.61250000000001Q45.3 113.01 46.11 113.01Z M56.7 114.0Q55.605 114.0 54.9525 113.3625Q54.3 112.725 54.3 111.675V104.28H51.45V103.05H55.65V111.675Q55.65 112.185 55.935 112.47749999999999Q56.22 112.77 56.7 112.77H59.25V114.0Z M64.5 114.15Q63.045 114.15 62.1525 113.27250000000001Q61.26 112.395 61.26 110.85V108.9Q61.26 107.355 62.1525 106.47749999999999Q63.045 105.6 64.5 105.6Q65.475 105.6 66.2025 105.99Q66.93 106.38 67.33500000000001 107.08500000000001Q67.74 107.79 67.74 108.75V110.22H62.58V111.0Q62.58 111.915 63.105000000000004 112.4475Q63.63 112.98 64.5 112.98Q65.25 112.98 65.7375 112.6875Q66.225 112.395 66.33 111.9H67.68Q67.545 112.935 66.67500000000001 113.5425Q65.805 114.15 64.5 114.15ZM62.58 109.17H66.42V108.75Q66.42 107.775 65.9175 107.2425Q65.415 106.71 64.5 106.71Q63.585 106.71 63.082499999999996 107.2425Q62.58 107.775 62.58 108.75Z M70.68 114.0V105.75H72.03V107.325H72.06Q72.165 106.53 72.73500000000001 106.065Q73.305 105.6 74.265 105.6Q75.555 105.6 76.2525 106.3725Q76.95 107.145 76.95 108.57V109.275H75.6V108.57Q75.6 106.77 73.845 106.77Q72.96 106.77 72.495 107.28Q72.03 107.79 72.03 108.75V114.0Z M83.325 114.0Q82.305 114.0 81.69 113.4075Q81.075 112.815 81.075 111.825V106.98H78.705V105.75H81.075V103.425H82.425V105.75H85.8V106.98H82.425V111.825Q82.425 112.245 82.6725 112.5075Q82.92 112.77 83.325 112.77H85.725V114.0Z M97.275 114.0V112.77H100.2V106.98H97.575V105.75H101.55V112.77H104.325V114.0ZM100.725 104.265Q100.22999999999999 104.265 99.945 104.00999999999999Q99.66 103.755 99.66 103.32Q99.66 102.87 99.945 102.6075Q100.22999999999999 102.345 100.725 102.345Q101.22 102.345 101.505 102.6075Q101.78999999999999 102.87 101.78999999999999 103.32Q101.78999999999999 103.755 101.505 104.00999999999999Q101.22 104.265 100.725 104.265Z M106.38 114.0V105.75H107.73V107.325H107.745Q107.85 106.5 108.41999999999999 106.05Q108.99 105.6 109.935 105.6Q111.18 105.6 111.915 106.365Q112.65 107.13 112.65 108.45V114.0H111.3V108.69Q111.3 107.745 110.8275 107.2425Q110.355 106.74 109.545 106.74Q108.705 106.74 108.2175 107.265Q107.73 107.79 107.73 108.75V114.0Z M127.5 110.10000000000001Q126.945 110.10000000000001 126.60749999999999 109.77000000000001Q126.27 109.44 126.27 108.915Q126.27 108.36 126.60749999999999 108.015Q126.945 107.67 127.5 107.67Q128.055 107.67 128.39249999999998 108.015Q128.73 108.36 128.73 108.915Q128.73 109.44 128.39249999999998 109.77000000000001Q128.055 110.10000000000001 127.5 110.10000000000001Z M145.62 114.15Q144.12 114.15 143.22 113.31Q142.32 112.47 142.32 111.0V108.75Q142.32 107.28 143.22 106.44Q144.12 105.6 145.62 105.6Q147.045 105.6 147.9225 106.365Q148.8 107.13 148.845 108.45H147.495Q147.45 107.655 146.95499999999998 107.22749999999999Q146.46 106.8 145.62 106.8Q144.735 106.8 144.2025 107.30250000000001Q143.67 107.805 143.67 108.735V111.0Q143.67 111.93 144.2025 112.44Q144.735 112.95 145.62 112.95Q146.46 112.95 146.95499999999998 112.515Q147.45 112.08 147.495 111.3H148.845Q148.8 112.62 147.9225 113.385Q147.045 114.15 145.62 114.15Z M153.78 114.15Q152.505 114.15 151.755 113.4375Q151.005 112.725 151.005 111.57Q151.005 110.805 151.35 110.23500000000001Q151.695 109.665 152.31 109.3425Q152.925 109.02 153.72 109.02H156.27V108.375Q156.27 106.77 154.515 106.77Q153.735 106.77 153.255 107.055Q152.775 107.34 152.745 107.85H151.395Q151.47 106.875 152.3025 106.2375Q153.135 105.6 154.515 105.6Q156.015 105.6 156.8175 106.32Q157.62 107.04 157.62 108.33V114.0H156.285V112.5H156.255Q156.135 113.265 155.49 113.70750000000001Q154.845 114.15 153.78 114.15ZM154.11 113.01Q155.1 113.01 155.685 112.53Q156.27 112.05 156.27 111.225V110.07H153.87Q153.21 110.07 152.7975 110.4675Q152.385 110.865 152.385 111.525Q152.385 112.215 152.8425 112.61250000000001Q153.3 113.01 154.11 113.01Z M163.485 114.15Q162.06 114.15 161.20499999999998 113.30250000000001Q160.35 112.455 160.35 111.0V105.75H161.7V111.0Q161.7 111.9 162.18 112.4325Q162.66 112.965 163.485 112.965Q164.325 112.965 164.8125 112.4325Q165.3 111.9 165.3 111.0V105.75H166.65V111.0Q166.65 112.455 165.78 113.30250000000001Q164.91 114.15 163.485 114.15Z M172.17 114.12Q170.79 114.12 170.0325 113.4975Q169.275 112.875 169.275 111.735H170.625Q170.625 112.305 171.03 112.6275Q171.435 112.95 172.17 112.95H172.83Q173.58 112.95 173.9925 112.62Q174.405 112.29 174.405 111.69Q174.405 110.625 173.43 110.49L171.15 110.16Q170.31 110.04 169.845 109.4625Q169.38 108.885 169.38 107.94Q169.38 106.86 170.1225 106.245Q170.865 105.63 172.17 105.63H172.83Q174.03 105.63 174.7875 106.2225Q175.545 106.815 175.605 107.775H174.24Q174.21 107.34 173.8275 107.055Q173.445 106.77 172.83 106.77H172.17Q171.48 106.77 171.08999999999997 107.08500000000001Q170.7 107.4 170.7 107.94Q170.7 108.81 171.495 108.93L173.625 109.23Q175.725 109.53 175.725 111.69Q175.725 112.845 174.9675 113.4825Q174.21 114.12 172.83 114.12Z M180.78 114.15Q179.505 114.15 178.755 113.4375Q178.005 112.725 178.005 111.57Q178.005 110.805 178.35 110.23500000000001Q178.695 109.665 179.31 109.3425Q179.925 109.02 180.72 109.02H183.27V108.375Q183.27 106.77 181.515 106.77Q180.735 106.77 180.255 107.055Q179.775 107.34 179.745 107.85H178.395Q178.47 106.875 179.3025 106.2375Q180.135 105.6 181.515 105.6Q183.015 105.6 183.8175 106.32Q184.62 107.04 184.62 108.33V114.0H183.285V112.5H183.255Q183.135 113.265 182.49 113.70750000000001Q181.845 114.15 180.78 114.15ZM181.11 113.01Q182.1 113.01 182.685 112.53Q183.27 112.05 183.27 111.225V110.07H180.87Q180.21 110.07 179.7975 110.4675Q179.385 110.865 179.385 111.525Q179.385 112.215 179.8425 112.61250000000001Q180.3 113.01 181.11 113.01Z M191.325 114.0Q190.305 114.0 189.69 113.4075Q189.075 112.815 189.075 111.825V106.98H186.705V105.75H189.075V103.425H190.425V105.75H193.8V106.98H190.425V111.825Q190.425 112.245 190.6725 112.5075Q190.92 112.77 191.325 112.77H193.725V114.0Z M196.275 114.0V112.77H199.2V106.98H196.575V105.75H200.55V112.77H203.325V114.0ZM199.725 104.265Q199.23 104.265 198.945 104.00999999999999Q198.66 103.755 198.66 103.32Q198.66 102.87 198.945 102.6075Q199.23 102.345 199.725 102.345Q200.22 102.345 200.505 102.6075Q200.79 102.87 200.79 103.32Q200.79 103.755 200.505 104.00999999999999Q200.22 104.265 199.725 104.265Z M208.5 114.12Q207.015 114.12 206.1375 113.25Q205.26 112.38 205.26 110.82V108.93Q205.26 107.355 206.13 106.4925Q207.0 105.63 208.5 105.63Q210.0 105.63 210.87 106.4925Q211.74 107.355 211.74 108.93V110.82Q211.74 112.38 210.8625 113.25Q209.985 114.12 208.5 114.12ZM208.5 112.92Q209.385 112.92 209.8875 112.42500000000001Q210.39 111.93 210.39 110.97V108.78Q210.39 107.82 209.8875 107.32499999999999Q209.385 106.83 208.5 106.83Q207.63 106.83 207.12 107.32499999999999Q206.61 107.82 206.61 108.78V110.97Q206.61 111.93 207.12 112.42500000000001Q207.63 112.92 208.5 112.92Z M214.38 114.0V105.75H215.73V107.325H215.745Q215.85 106.5 216.42000000000002 106.05Q216.99 105.6 217.935 105.6Q219.18 105.6 219.91500000000002 106.365Q220.65 107.13 220.65 108.45V114.0H219.3V108.69Q219.3 107.745 218.8275 107.2425Q218.355 106.74 217.545 106.74Q216.705 106.74 216.2175 107.265Q215.73 107.79 215.73 108.75V114.0Z M235.62 114.15Q234.12 114.15 233.22 113.31Q232.32 112.47 232.32 111.0V108.75Q232.32 107.28 233.22 106.44Q234.12 105.6 235.62 105.6Q237.045 105.6 237.9225 106.365Q238.8 107.13 238.845 108.45H237.495Q237.45 107.655 236.95499999999998 107.22749999999999Q236.46 106.8 235.62 106.8Q234.735 106.8 234.2025 107.30250000000001Q233.67 107.805 233.67 108.735V111.0Q233.67 111.93 234.2025 112.44Q234.735 112.95 235.62 112.95Q236.46 112.95 236.95499999999998 112.515Q237.45 112.08 237.495 111.3H238.845Q238.8 112.62 237.9225 113.385Q237.045 114.15 235.62 114.15Z M241.38 114.0V103.05H242.73V107.325H242.745Q242.85 106.5 243.42000000000002 106.05Q243.99 105.6 244.935 105.6Q246.18 105.6 246.91500000000002 106.365Q247.65 107.13 247.65 108.45V114.0H246.3V108.675Q246.3 107.745 245.8275 107.2425Q245.355 106.74 244.545 106.74Q243.705 106.74 243.2175 107.265Q242.73 107.79 242.73 108.75V114.0Z M252.78 114.15Q251.505 114.15 250.755 113.4375Q250.005 112.725 250.005 111.57Q250.005 110.805 250.35 110.23500000000001Q250.695 109.665 251.31 109.3425Q251.925 109.02 252.72 109.02H255.27V108.375Q255.27 106.77 253.515 106.77Q252.735 106.77 252.255 107.055Q251.775 107.34 251.745 107.85H250.395Q250.47 106.875 251.3025 106.2375Q252.135 105.6 253.515 105.6Q255.015 105.6 255.8175 106.32Q256.62 107.04 256.62 108.33V114.0H255.285V112.5H255.255Q255.135 113.265 254.49 113.70750000000001Q253.845 114.15 252.78 114.15ZM253.11 113.01Q254.1 113.01 254.685 112.53Q255.27 112.05 255.27 111.225V110.07H252.87Q252.21 110.07 251.7975 110.4675Q251.385 110.865 251.385 111.525Q251.385 112.215 251.8425 112.61250000000001Q252.3 113.01 253.11 113.01Z M259.275 114.0V112.77H262.2V106.98H259.575V105.75H263.55V112.77H266.325V114.0ZM262.725 104.265Q262.23 104.265 261.94500000000005 104.00999999999999Q261.66 103.755 261.66 103.32Q261.66 102.87 261.94500000000005 102.6075Q262.23 102.345 262.725 102.345Q263.22 102.345 263.505 102.6075Q263.79 102.87 263.79 103.32Q263.79 103.755 263.505 104.00999999999999Q263.22 104.265 262.725 104.265Z M268.38 114.0V105.75H269.73V107.325H269.745Q269.85 106.5 270.42 106.05Q270.99 105.6 271.935 105.6Q273.18 105.6 273.91499999999996 106.365Q274.65 107.13 274.65 108.45V114.0H273.3V108.69Q273.3 107.745 272.8275 107.2425Q272.355 106.74 271.545 106.74Q270.705 106.74 270.2175 107.265Q269.73 107.79 269.73 108.75V114.0Z M289.5 114.12Q288.015 114.12 287.1375 113.25Q286.26 112.38 286.26 110.82V108.93Q286.26 107.355 287.13 106.4925Q288.0 105.63 289.5 105.63Q291.0 105.63 291.87 106.4925Q292.74 107.355 292.74 108.93V110.82Q292.74 112.38 291.8625 113.25Q290.985 114.12 289.5 114.12ZM289.5 112.92Q290.385 112.92 290.8875 112.42500000000001Q291.39 111.93 291.39 110.97V108.78Q291.39 107.82 290.8875 107.32499999999999Q290.385 106.83 289.5 106.83Q288.63 106.83 288.12 107.32499999999999Q287.61 107.82 287.61 108.78V110.97Q287.61 111.93 288.12 112.42500000000001Q288.63 112.92 289.5 112.92Z M298.485 114.15Q297.06 114.15 296.20500000000004 113.30250000000001Q295.35 112.455 295.35 111.0V105.75H296.7V111.0Q296.7 111.9 297.18 112.4325Q297.66 112.965 298.485 112.965Q299.325 112.965 299.8125 112.4325Q300.3 111.9 300.3 111.0V105.75H301.65V111.0Q301.65 112.455 300.78 113.30250000000001Q299.91 114.15 298.485 114.15Z M308.325 114.0Q307.305 114.0 306.69 113.4075Q306.075 112.815 306.075 111.825V106.98H303.705V105.75H306.075V103.425H307.425V105.75H310.8V106.98H307.425V111.825Q307.425 112.245 307.6725 112.5075Q307.92 112.77 308.325 112.77H310.725V114.0Z M325.5 110.10000000000001Q324.945 110.10000000000001 324.60749999999996 109.77000000000001Q324.27 109.44 324.27 108.915Q324.27 108.36 324.60749999999996 108.015Q324.945 107.67 325.5 107.67Q326.055 107.67 326.39250000000004 108.015Q326.73 108.36 326.73 108.915Q326.73 109.44 326.39250000000004 109.77000000000001Q326.055 110.10000000000001 325.5 110.10000000000001Z M342.225 114.0V108.105H339.825V106.875H342.225V105.15Q342.225 104.175 342.84000000000003 103.6125Q343.455 103.05 344.535 103.05H346.95V104.28H344.535Q343.575 104.28 343.575 105.15V106.875H346.95V108.105H343.575V114.0Z M349.275 114.0V112.77H352.2V106.98H349.575V105.75H353.55V112.77H356.325V114.0ZM352.725 104.265Q352.23 104.265 351.94500000000005 104.00999999999999Q351.66 103.755 351.66 103.32Q351.66 102.87 351.94500000000005 102.6075Q352.23 102.345 352.725 102.345Q353.22 102.345 353.505 102.6075Q353.79 102.87 353.79 103.32Q353.79 103.755 353.505 104.00999999999999Q353.22 104.265 352.725 104.265Z M357.75 114.0 360.675 109.755 357.93 105.75H359.52L361.155 108.3Q361.26 108.465 361.35749999999996 108.66Q361.455 108.855 361.515 108.975Q361.56 108.855 361.6575 108.66Q361.755 108.465 361.86 108.3L363.495 105.75H365.085L362.34 109.77L365.25 114.0H363.66L361.89 111.3Q361.785 111.135 361.6875 110.9175Q361.59 110.7 361.515 110.565Q361.455 110.7 361.3425 110.9175Q361.23 111.135 361.11 111.3L359.34 114.0Z M379.62 114.15Q378.12 114.15 377.22 113.31Q376.32 112.47 376.32 111.0V108.75Q376.32 107.28 377.22 106.44Q378.12 105.6 379.62 105.6Q381.045 105.6 381.9225 106.365Q382.8 107.13 382.845 108.45H381.495Q381.45 107.655 380.955 107.22749999999999Q380.46 106.8 379.62 106.8Q378.735 106.8 378.2025 107.30250000000001Q377.67 107.805 377.67 108.735V111.0Q377.67 111.93 378.2025 112.44Q378.735 112.95 379.62 112.95Q380.46 112.95 380.955 112.515Q381.45 112.08 381.495 111.3H382.845Q382.8 112.62 381.9225 113.385Q381.045 114.15 379.62 114.15Z M388.5 114.12Q387.015 114.12 386.1375 113.25Q385.26 112.38 385.26 110.82V108.93Q385.26 107.355 386.13 106.4925Q387.0 105.63 388.5 105.63Q390.0 105.63 390.87 106.4925Q391.74 107.355 391.74 108.93V110.82Q391.74 112.38 390.8625 113.25Q389.985 114.12 388.5 114.12ZM388.5 112.92Q389.385 112.92 389.8875 112.42500000000001Q390.39 111.93 390.39 110.97V108.78Q390.39 107.82 389.8875 107.32499999999999Q389.385 106.83 388.5 106.83Q387.63 106.83 387.12 107.32499999999999Q386.61 107.82 386.61 108.78V110.97Q386.61 111.93 387.12 112.42500000000001Q387.63 112.92 388.5 112.92Z M393.9 114.0V105.75H395.07V106.845H395.1Q395.175 106.29 395.5425 105.945Q395.91 105.6 396.48 105.6Q397.02 105.6 397.395 105.91499999999999Q397.77 106.23 397.935 106.77H397.95Q398.055 106.23 398.4225 105.91499999999999Q398.79 105.6 399.36 105.6Q400.155 105.6 400.6275 106.1925Q401.1 106.785 401.1 107.73V114.0H399.84V107.715Q399.84 107.22 399.6 106.92750000000001Q399.36 106.635 398.94 106.635Q398.535 106.635 398.295 106.92Q398.055 107.205 398.055 107.7V114.0H396.945V107.715Q396.945 107.22 396.705 106.92750000000001Q396.465 106.635 396.06 106.635Q395.64 106.635 395.4 106.92Q395.16 107.205 395.16 107.7V114.0Z M402.9 114.0V105.75H404.07V106.845H404.1Q404.175 106.29 404.5425 105.945Q404.91 105.6 405.48 105.6Q406.02 105.6 406.395 105.91499999999999Q406.77 106.23 406.935 106.77H406.95Q407.055 106.23 407.4225 105.91499999999999Q407.79 105.6 408.36 105.6Q409.155 105.6 409.6275 106.1925Q410.1 106.785 410.1 107.73V114.0H408.84V107.715Q408.84 107.22 408.6 106.92750000000001Q408.36 106.635 407.94 106.635Q407.535 106.635 407.295 106.92Q407.055 107.205 407.055 107.7V114.0H405.945V107.715Q405.945 107.22 405.705 106.92750000000001Q405.465 106.635 405.06 106.635Q404.64 106.635 404.4 106.92Q404.16 107.205 404.16 107.7V114.0Z M414.78 114.15Q413.505 114.15 412.755 113.4375Q412.005 112.725 412.005 111.57Q412.005 110.805 412.35 110.23500000000001Q412.695 109.665 413.31 109.3425Q413.925 109.02 414.72 109.02H417.27V108.375Q417.27 106.77 415.515 106.77Q414.735 106.77 414.255 107.055Q413.775 107.34 413.745 107.85H412.395Q412.47 106.875 413.3025 106.2375Q414.135 105.6 415.515 105.6Q417.015 105.6 417.8175 106.32Q418.62 107.04 418.62 108.33V114.0H417.285V112.5H417.255Q417.135 113.265 416.49 113.70750000000001Q415.845 114.15 414.78 114.15ZM415.11 113.01Q416.1 113.01 416.685 112.53Q417.27 112.05 417.27 111.225V110.07H414.87Q414.21 110.07 413.7975 110.4675Q413.385 110.865 413.385 111.525Q413.385 112.215 413.8425 112.61250000000001Q414.3 113.01 415.11 113.01Z M421.38 114.0V105.75H422.73V107.325H422.745Q422.85 106.5 423.42 106.05Q423.99 105.6 424.935 105.6Q426.18 105.6 426.91499999999996 106.365Q427.65 107.13 427.65 108.45V114.0H426.3V108.69Q426.3 107.745 425.8275 107.2425Q425.355 106.74 424.545 106.74Q423.705 106.74 423.2175 107.265Q422.73 107.79 422.73 108.75V114.0Z M433.02 114.15Q431.79 114.15 431.0475 113.325Q430.305 112.5 430.305 111.09V108.675Q430.305 107.25 431.03999999999996 106.425Q431.775 105.6 433.02 105.6Q433.95 105.6 434.5575 106.065Q435.165 106.53 435.285 107.325H435.3L435.27 105.45V103.05H436.62V114.0H435.27V112.425H435.255Q435.15 113.235 434.54999999999995 113.6925Q433.95 114.15 433.02 114.15ZM433.47 112.98Q434.31 112.98 434.78999999999996 112.45500000000001Q435.27 111.93 435.27 111.0V108.75Q435.27 107.82 434.78999999999996 107.29499999999999Q434.31 106.77 433.47 106.77Q432.615 106.77 432.135 107.2125Q431.655 107.655 431.655 108.675V111.075Q431.655 112.08 432.135 112.53Q432.615 112.98 433.47 112.98Z M448.68 114.0V105.75H450.03V107.325H450.06Q450.165 106.53 450.735 106.065Q451.305 105.6 452.265 105.6Q453.555 105.6 454.2525 106.3725Q454.95 107.145 454.95 108.57V109.275H453.6V108.57Q453.6 106.77 451.845 106.77Q450.96 106.77 450.495 107.28Q450.03 107.79 450.03 108.75V114.0Z M460.5 114.15Q459.045 114.15 458.15250000000003 113.27250000000001Q457.26 112.395 457.26 110.85V108.9Q457.26 107.355 458.15250000000003 106.47749999999999Q459.045 105.6 460.5 105.6Q461.475 105.6 462.2025 105.99Q462.93 106.38 463.33500000000004 107.08500000000001Q463.74 107.79 463.74 108.75V110.22H458.58V111.0Q458.58 111.915 459.105 112.4475Q459.63 112.98 460.5 112.98Q461.25 112.98 461.7375 112.6875Q462.225 112.395 462.33 111.9H463.68Q463.545 112.935 462.675 113.5425Q461.805 114.15 460.5 114.15ZM458.58 109.17H462.42V108.75Q462.42 107.775 461.9175 107.2425Q461.415 106.71 460.5 106.71Q459.585 106.71 459.0825 107.2425Q458.58 107.775 458.58 108.75Z M468.78 114.15Q467.505 114.15 466.755 113.4375Q466.005 112.725 466.005 111.57Q466.005 110.805 466.35 110.23500000000001Q466.695 109.665 467.31 109.3425Q467.925 109.02 468.72 109.02H471.27V108.375Q471.27 106.77 469.515 106.77Q468.735 106.77 468.255 107.055Q467.775 107.34 467.745 107.85H466.395Q466.47 106.875 467.3025 106.2375Q468.135 105.6 469.515 105.6Q471.015 105.6 471.8175 106.32Q472.62 107.04 472.62 108.33V114.0H471.285V112.5H471.255Q471.135 113.265 470.49 113.70750000000001Q469.845 114.15 468.78 114.15ZM469.11 113.01Q470.1 113.01 470.685 112.53Q471.27 112.05 471.27 111.225V110.07H468.87Q468.21 110.07 467.7975 110.4675Q467.385 110.865 467.385 111.525Q467.385 112.215 467.8425 112.61250000000001Q468.3 113.01 469.11 113.01Z M478.02 114.15Q476.79 114.15 476.0475 113.325Q475.305 112.5 475.305 111.09V108.675Q475.305 107.25 476.03999999999996 106.425Q476.775 105.6 478.02 105.6Q478.95 105.6 479.5575 106.065Q480.165 106.53 480.285 107.325H480.3L480.27 105.45V103.05H481.62V114.0H480.27V112.425H480.255Q480.15 113.235 479.54999999999995 113.6925Q478.95 114.15 478.02 114.15ZM478.47 112.98Q479.31 112.98 479.78999999999996 112.45500000000001Q480.27 111.93 480.27 111.0V108.75Q480.27 107.82 479.78999999999996 107.29499999999999Q479.31 106.77 478.47 106.77Q477.615 106.77 477.135 107.2125Q476.655 107.655 476.655 108.675V111.075Q476.655 112.08 477.135 112.53Q477.615 112.98 478.47 112.98Z M485.67 116.7 486.885 113.49 483.81 105.75H485.265L487.215 110.85Q487.335 111.15 487.44 111.48Q487.545 111.81 487.59 112.05Q487.635 111.81 487.74 111.48Q487.845 111.15 487.95 110.85L489.765 105.75H491.19L487.08 116.7Z M506.325 114.0Q505.305 114.0 504.69 113.4075Q504.075 112.815 504.075 111.825V106.98H501.705V105.75H504.075V103.425H505.425V105.75H508.8V106.98H505.425V111.825Q505.425 112.245 505.6725 112.5075Q505.92 112.77 506.325 112.77H508.725V114.0Z M514.5 114.12Q513.015 114.12 512.1375 113.25Q511.26 112.38 511.26 110.82V108.93Q511.26 107.355 512.13 106.4925Q513.0 105.63 514.5 105.63Q516.0 105.63 516.87 106.4925Q517.74 107.355 517.74 108.93V110.82Q517.74 112.38 516.8625 113.25Q515.985 114.12 514.5 114.12ZM514.5 112.92Q515.385 112.92 515.8875 112.42500000000001Q516.39 111.93 516.39 110.97V108.78Q516.39 107.82 515.8875 107.32499999999999Q515.385 106.83 514.5 106.83Q513.63 106.83 513.12 107.32499999999999Q512.61 107.82 512.61 108.78V110.97Q512.61 111.93 513.12 112.42500000000001Q513.63 112.92 514.5 112.92Z M529.68 114.0V105.75H531.03V107.325H531.06Q531.165 106.53 531.7349999999999 106.065Q532.305 105.6 533.265 105.6Q534.555 105.6 535.2525 106.3725Q535.95 107.145 535.95 108.57V109.275H534.6V108.57Q534.6 106.77 532.845 106.77Q531.96 106.77 531.495 107.28Q531.03 107.79 531.03 108.75V114.0Z M541.485 114.15Q540.06 114.15 539.2049999999999 113.30250000000001Q538.35 112.455 538.35 111.0V105.75H539.7V111.0Q539.7 111.9 540.1800000000001 112.4325Q540.66 112.965 541.485 112.965Q542.325 112.965 542.8125 112.4325Q543.3 111.9 543.3 111.0V105.75H544.65V111.0Q544.65 112.455 543.78 113.30250000000001Q542.91 114.15 541.485 114.15Z M547.38 114.0V105.75H548.73V107.325H548.745Q548.85 106.5 549.4200000000001 106.05Q549.99 105.6 550.935 105.6Q552.18 105.6 552.915 106.365Q553.65 107.13 553.65 108.45V114.0H552.3V108.69Q552.3 107.745 551.8275 107.2425Q551.355 106.74 550.545 106.74Q549.705 106.74 549.2175 107.265Q548.73 107.79 548.73 108.75V114.0Z" fill="#4A4E57"/>
</svg>
